<?xml version="1.0" standalone="no"?>
<!DOCTYPE svg PUBLIC "-//W3C//DTD SVG 20010904//EN"
 "http://www.w3.org/TR/2001/REC-SVG-20010904/DTD/svg10.dtd">
<svg version="1.0" xmlns="http://www.w3.org/2000/svg"
 width="1600.000000pt" height="1600.000000pt" viewBox="0 0 1600.000000 1600.000000"
 preserveAspectRatio="xMidYMid meet">
<metadata>
Created by potrace 1.11, written by Peter Selinger 2001-2013
</metadata>
<g transform="translate(0.000000,1600.000000) scale(0.100000,-0.100000)"
fill="#000000" stroke="none">
<path d="M7875 15493 c-306 -42 -584 -225 -738 -489 -94 -160 -137 -333 -132
-529 6 -254 93 -466 264 -647 64 -68 200 -178 220 -178 8 0 11 -172 11 -575
l0 -575 -1307 -1 c-720 0 -1328 -2 -1353 -4 -316 -26 -564 -87 -825 -200 -701
-305 -1236 -922 -1431 -1650 -10 -38 -53 -248 -57 -280 -7 -53 -18 -150 -22
-200 -1 -22 -3 -293 -4 -602 l-1 -563 -750 0 -750 0 0 -2000 0 -2000 750 0
750 0 0 -1250 0 -1250 5500 0 5500 0 0 1250 0 1250 750 0 750 0 0 2000 0 2000
-750 0 -750 0 -1 553 c0 303 -2 581 -5 617 -6 99 -33 273 -59 390 -25 111
-100 348 -116 365 -5 5 -9 15 -9 23 0 19 -117 252 -175 347 -323 531 -846 933
-1439 1105 -181 52 -350 82 -546 95 -30 2 -639 4 -1352 4 l-1298 1 0 569 0
570 56 37 c197 131 355 355 414 589 26 100 35 293 19 380 -5 28 -12 63 -15 79
-29 165 -169 400 -310 524 -125 109 -281 189 -444 228 -71 17 -274 27 -345 17z
m3305 -4003 c509 -67 921 -355 1156 -806 52 -100 117 -288 141 -409 17 -85 18
-269 21 -3432 l2 -3343 -500 0 -500 0 0 1250 0 1250 -3500 0 -3500 0 0 -1250
0 -1250 -500 0 -500 0 0 3318 c1 3223 1 3320 20 3422 49 267 130 461 278 660
98 133 282 302 412 379 132 78 361 170 465 187 22 3 74 12 115 19 60 10 714
13 3200 13 1719 0 3154 -3 3190 -8z m-8680 -4490 l0 -1000 -250 0 -250 0 0
1000 0 1000 250 0 250 0 0 -1000z m11500 0 l0 -1000 -250 0 -250 0 0 1000 0
1000 250 0 250 0 0 -1000z m-7500 -2750 l0 -750 -500 0 -500 0 0 750 0 750
500 0 500 0 0 -750z m2000 0 l0 -750 -500 0 -500 0 0 750 0 750 500 0 500 0 0
-750z m2000 0 l0 -750 -500 0 -500 0 0 750 0 750 500 0 500 0 0 -750z"/>
<path d="M5850 9489 c-89 -16 -106 -20 -165 -41 -103 -36 -145 -56 -234 -114
-230 -150 -393 -401 -439 -674 -8 -53 -9 -269 0 -320 9 -54 36 -153 54 -196
29 -71 86 -184 94 -184 4 0 12 -11 18 -24 28 -61 171 -204 271 -271 74 -48
230 -119 287 -129 16 -3 45 -11 64 -17 19 -5 94 -12 165 -15 288 -9 529 84
734 285 201 196 302 443 296 728 -2 145 -21 238 -70 359 -124 302 -370 514
-690 595 -88 23 -305 33 -385 18z"/>
<path d="M9850 9489 c-83 -15 -104 -20 -164 -40 -258 -87 -474 -277 -589 -521
-66 -139 -96 -276 -95 -438 2 -271 106 -513 302 -705 186 -182 407 -274 671
-281 253 -6 461 65 657 223 225 182 354 443 363 738 4 140 -8 235 -46 349
-109 327 -375 572 -714 657 -88 23 -305 33 -385 18z"/>
</g>
</svg>
